<svg width="656" height="521" viewBox="0 0 740 485" fill="none" xmlns="http://www.w3.org/2000/svg">
<path fill-rule="evenodd" clip-rule="evenodd" d="M217.38 67.7551H382.39V0.654388H217.38V67.7551Z" fill="white"/>
<path d="M382.39 0H217.38C217.019 0 216.727 0.292994 216.727 0.654421V67.7552C216.727 68.1166 217.019 68.4096 217.38 68.4096H382.39C382.751 68.4096 383.044 68.1166 383.044 67.7552V0.654421C383.044 0.292994 382.751 0 382.39 0ZM381.737 1.30852V67.1004H218.034V1.30852H381.737Z" fill="#141414"/>
<path fill-rule="evenodd" clip-rule="evenodd" d="M231.403 53.3272H271.26V13.7347H231.403V53.3272Z" fill="#FF4B33"/>
<path d="M320.756 44.5941C322.2 44.5941 323.371 45.766 323.371 47.2118C323.371 48.6302 322.244 49.7851 320.837 49.8282L320.756 49.8294H281.631C280.187 49.8294 279.016 48.6575 279.016 47.2118C279.016 45.7933 280.143 44.6384 281.55 44.5953L281.631 44.5941H320.756ZM337.827 31.4079C339.271 31.4079 340.442 32.5799 340.442 34.0256C340.442 35.444 339.315 36.5989 337.909 36.642L337.827 36.6432H281.631C280.187 36.6432 279.016 35.4713 279.016 34.0256C279.016 32.6071 280.143 31.4522 281.55 31.4091L281.631 31.4079H337.827ZM355.25 18.2217C356.694 18.2217 357.865 19.3937 357.865 20.8394C357.865 22.2578 356.738 23.4127 355.331 23.4558L355.25 23.457H281.631C280.187 23.457 279.016 22.2851 279.016 20.8394C279.016 19.4209 280.143 18.266 281.55 18.2229L281.631 18.2217H355.25Z" fill="#D3E2F2"/>
<path fill-rule="evenodd" clip-rule="evenodd" d="M217.38 152.02H382.39V84.9196H217.38V152.02Z" fill="white"/>
<path d="M382.39 84.2653H217.38C217.019 84.2653 216.726 84.5583 216.726 84.9197V152.02C216.726 152.382 217.019 152.675 217.38 152.675H382.39C382.751 152.675 383.044 152.382 383.044 152.02V84.9197C383.044 84.5583 382.751 84.2653 382.39 84.2653ZM381.737 85.5738V151.366H218.034V85.5738H381.737Z" fill="#141414"/>
<path fill-rule="evenodd" clip-rule="evenodd" d="M231.403 137.592H271.26V97.9999H231.403V137.592Z" fill="#13D6C3"/>
<path d="M320.756 128.859C322.2 128.859 323.371 130.031 323.371 131.477C323.371 132.895 322.244 134.05 320.837 134.093L320.756 134.095H281.631C280.187 134.095 279.016 132.923 279.016 131.477C279.016 130.059 280.143 128.904 281.55 128.861L281.631 128.859H320.756ZM337.827 115.673C339.271 115.673 340.442 116.845 340.442 118.291C340.442 119.709 339.315 120.864 337.909 120.907L337.827 120.908H281.631C280.187 120.908 279.016 119.737 279.016 118.291C279.016 116.872 280.143 115.717 281.55 115.674L281.631 115.673H337.827ZM355.25 102.487C356.694 102.487 357.865 103.659 357.865 105.105C357.865 106.523 356.738 107.678 355.331 107.721L355.25 107.722H281.631C280.187 107.722 279.016 106.55 279.016 105.105C279.016 103.686 280.143 102.531 281.55 102.488L281.631 102.487H355.25Z" fill="#D3E2F2"/>
<g opacity="0.553">
<path fill-rule="evenodd" clip-rule="evenodd" d="M217.38 236.286H382.39V169.185H217.38V236.286Z" fill="white"/>
<path d="M382.39 168.531H217.38C217.019 168.531 216.726 168.824 216.726 169.185V236.286C216.726 236.647 217.019 236.94 217.38 236.94H382.39C382.751 236.94 383.044 236.647 383.044 236.286V169.185C383.044 168.824 382.751 168.531 382.39 168.531ZM381.737 169.839V235.631H218.034V169.839H381.737Z" fill="#141414"/>
<path fill-rule="evenodd" clip-rule="evenodd" d="M231.403 221.858H271.26V182.265H231.403V221.858Z" fill="#476520"/>
<path d="M320.756 213.125C322.2 213.125 323.371 214.297 323.371 215.742C323.371 217.161 322.244 218.316 320.837 218.359L320.756 218.36H281.631C280.187 218.36 279.016 217.188 279.016 215.742C279.016 214.324 280.143 213.169 281.55 213.126L281.631 213.125H320.756ZM337.827 199.938C339.271 199.938 340.442 201.11 340.442 202.556C340.442 203.975 339.315 205.13 337.909 205.173L337.827 205.174H281.631C280.187 205.174 279.016 204.002 279.016 202.556C279.016 201.138 280.143 199.983 281.55 199.94L281.631 199.938H337.827ZM355.25 186.752C356.694 186.752 357.865 187.924 357.865 189.37C357.865 190.788 356.738 191.943 355.331 191.986L355.25 191.988H281.631C280.187 191.988 279.016 190.816 279.016 189.37C279.016 187.952 280.143 186.797 281.55 186.754L281.631 186.752H355.25Z" fill="#D3E2F2"/>
</g>
<g opacity="0.162">
<path fill-rule="evenodd" clip-rule="evenodd" d="M217.38 320.551H382.39V253.45H217.38V320.551Z" fill="white"/>
<path d="M382.39 252.796H217.38C217.019 252.796 216.726 253.089 216.726 253.45V320.551C216.726 320.913 217.019 321.206 217.38 321.206H382.39C382.751 321.206 383.044 320.913 383.044 320.551V253.45C383.044 253.089 382.751 252.796 382.39 252.796ZM381.737 254.104V319.896H218.034V254.104H381.737Z" fill="#141414"/>
<path fill-rule="evenodd" clip-rule="evenodd" d="M231.403 306.123H271.26V266.531H231.403V306.123Z" fill="#FFC81A"/>
<path d="M320.756 297.39C322.2 297.39 323.371 298.562 323.371 300.008C323.371 301.426 322.244 302.581 320.837 302.624L320.756 302.625H281.631C280.187 302.625 279.016 301.453 279.016 300.008C279.016 298.589 280.143 297.434 281.55 297.391L281.631 297.39H320.756ZM337.827 284.204C339.271 284.204 340.442 285.376 340.442 286.822C340.442 288.24 339.315 289.395 337.909 289.438L337.827 289.439H281.631C280.187 289.439 279.016 288.267 279.016 286.822C279.016 285.403 280.143 284.248 281.55 284.205L281.631 284.204H337.827ZM355.25 271.018C356.694 271.018 357.865 272.19 357.865 273.635C357.865 275.054 356.738 276.209 355.331 276.252L355.25 276.253H281.631C280.187 276.253 279.016 275.081 279.016 273.635C279.016 272.217 280.143 271.062 281.55 271.019L281.631 271.018H355.25Z" fill="#D3E2F2"/>
</g>
<path fill-rule="evenodd" clip-rule="evenodd" d="M420.63 67.7551H585.64V0.654388H420.63V67.7551Z" fill="white"/>
<path d="M585.64 0H420.63C420.269 0 419.976 0.292994 419.976 0.654421V67.7552C419.976 68.1166 420.269 68.4096 420.63 68.4096H585.64C586.001 68.4096 586.294 68.1166 586.294 67.7552V0.654421C586.294 0.292994 586.001 0 585.64 0ZM584.986 1.30852V67.1004H421.283V1.30852H584.986Z" fill="#141414"/>
<path fill-rule="evenodd" clip-rule="evenodd" d="M434.653 53.3272H474.509V13.7347H434.653V53.3272Z" fill="#FFC81A"/>
<path d="M524.005 44.5941C525.45 44.5941 526.62 45.766 526.62 47.2118C526.62 48.6302 525.493 49.7851 524.087 49.8282L524.005 49.8294H484.881C483.437 49.8294 482.266 48.6575 482.266 47.2118C482.266 45.7933 483.393 44.6384 484.799 44.5953L484.881 44.5941H524.005ZM541.077 31.4079C542.521 31.4079 543.692 32.5799 543.692 34.0256C543.692 35.444 542.565 36.5989 541.158 36.642L541.077 36.6432H484.881C483.437 36.6432 482.266 35.4713 482.266 34.0256C482.266 32.6071 483.393 31.4522 484.799 31.4091L484.881 31.4079H541.077ZM558.499 18.2217C559.943 18.2217 561.114 19.3937 561.114 20.8394C561.114 22.2578 559.987 23.4127 558.581 23.4558L558.499 23.457H484.881C483.437 23.457 482.266 22.2851 482.266 20.8394C482.266 19.4209 483.393 18.266 484.799 18.2229L484.881 18.2217H558.499Z" fill="#D3E2F2"/>
<path fill-rule="evenodd" clip-rule="evenodd" d="M420.63 152.02H585.64V84.9196H420.63V152.02Z" fill="white"/>
<path d="M585.64 84.2653H420.63C420.269 84.2653 419.976 84.5583 419.976 84.9197V152.02C419.976 152.382 420.269 152.675 420.63 152.675H585.64C586.001 152.675 586.294 152.382 586.294 152.02V84.9197C586.294 84.5583 586.001 84.2653 585.64 84.2653ZM584.986 85.5738V151.366H421.283V85.5738H584.986Z" fill="#141414"/>
<path fill-rule="evenodd" clip-rule="evenodd" d="M434.653 137.592H474.509V97.9999H434.653V137.592Z" fill="#FFC81A"/>
<path d="M524.005 128.859C525.45 128.859 526.62 130.031 526.62 131.477C526.62 132.895 525.493 134.05 524.087 134.093L524.005 134.095H484.881C483.437 134.095 482.266 132.923 482.266 131.477C482.266 130.059 483.393 128.904 484.799 128.861L484.881 128.859H524.005ZM541.077 115.673C542.521 115.673 543.692 116.845 543.692 118.291C543.692 119.709 542.565 120.864 541.158 120.907L541.077 120.908H484.881C483.437 120.908 482.266 119.737 482.266 118.291C482.266 116.872 483.393 115.717 484.799 115.674L484.881 115.673H541.077ZM558.499 102.487C559.943 102.487 561.114 103.659 561.114 105.105C561.114 106.523 559.987 107.678 558.581 107.721L558.499 107.722H484.881C483.437 107.722 482.266 106.55 482.266 105.105C482.266 103.686 483.393 102.531 484.799 102.488L484.881 102.487H558.499Z" fill="#D3E2F2"/>
<g opacity="0.553">
<path fill-rule="evenodd" clip-rule="evenodd" d="M420.63 236.286H585.64V169.185H420.63V236.286Z" fill="white"/>
<path d="M585.64 168.531H420.63C420.269 168.531 419.976 168.824 419.976 169.185V236.286C419.976 236.647 420.269 236.94 420.63 236.94H585.64C586.001 236.94 586.294 236.647 586.294 236.286V169.185C586.294 168.824 586.001 168.531 585.64 168.531ZM584.986 169.839V235.631H421.283V169.839H584.986Z" fill="#141414"/>
<path fill-rule="evenodd" clip-rule="evenodd" d="M434.653 221.858H474.509V182.265H434.653V221.858Z" fill="#FFC81A"/>
<path d="M524.005 213.125C525.45 213.125 526.62 214.297 526.62 215.742C526.62 217.161 525.493 218.316 524.087 218.359L524.005 218.36H484.881C483.437 218.36 482.266 217.188 482.266 215.742C482.266 214.324 483.393 213.169 484.799 213.126L484.881 213.125H524.005ZM541.077 199.938C542.521 199.938 543.692 201.11 543.692 202.556C543.692 203.975 542.565 205.13 541.158 205.173L541.077 205.174H484.881C483.437 205.174 482.266 204.002 482.266 202.556C482.266 201.138 483.393 199.983 484.799 199.94L484.881 199.938H541.077ZM558.499 186.752C559.943 186.752 561.114 187.924 561.114 189.37C561.114 190.788 559.987 191.943 558.581 191.986L558.499 191.988H484.881C483.437 191.988 482.266 190.816 482.266 189.37C482.266 187.952 483.393 186.797 484.799 186.754L484.881 186.752H558.499Z" fill="#D3E2F2"/>
</g>
<g opacity="0.162">
<path fill-rule="evenodd" clip-rule="evenodd" d="M420.63 320.551H585.64V253.45H420.63V320.551Z" fill="white"/>
<path d="M585.64 252.796H420.63C420.269 252.796 419.976 253.089 419.976 253.45V320.551C419.976 320.913 420.269 321.206 420.63 321.206H585.64C586.001 321.206 586.294 320.913 586.294 320.551V253.45C586.294 253.089 586.001 252.796 585.64 252.796ZM584.986 254.104V319.896H421.283V254.104H584.986Z" fill="#141414"/>
<path fill-rule="evenodd" clip-rule="evenodd" d="M434.653 306.123H474.509V266.531H434.653V306.123Z" fill="#FFC81A"/>
<path d="M524.005 297.39C525.45 297.39 526.62 298.562 526.62 300.008C526.62 301.426 525.493 302.581 524.087 302.624L524.005 302.625H484.881C483.437 302.625 482.266 301.453 482.266 300.008C482.266 298.589 483.393 297.434 484.799 297.391L484.881 297.39H524.005ZM541.077 284.204C542.521 284.204 543.692 285.376 543.692 286.822C543.692 288.24 542.565 289.395 541.158 289.438L541.077 289.439H484.881C483.437 289.439 482.266 288.267 482.266 286.822C482.266 285.403 483.393 284.248 484.799 284.205L484.881 284.204H541.077ZM558.499 271.018C559.943 271.018 561.114 272.19 561.114 273.635C561.114 275.054 559.987 276.209 558.581 276.252L558.499 276.253H484.881C483.437 276.253 482.266 275.081 482.266 273.635C482.266 272.217 483.393 271.062 484.799 271.019L484.881 271.018H558.499Z" fill="#D3E2F2"/>
</g>
<path fill-rule="evenodd" clip-rule="evenodd" d="M55.6361 439.213C55.6361 439.213 50.4037 429.076 60.8931 413.092C83.103 379.248 47.185 395.572 39.2395 372.459C32.7608 353.614 43.5471 334.574 32.716 329.529C14.9862 321.272 -3.49573 309.099 8.37556 295.326C16.7052 285.662 45.3988 286.533 56.6498 316.273C63.6902 334.884 91.4326 322.469 116.047 351.951C123.378 360.732 139.476 397.891 131.028 439.213H55.6361Z" fill="#141414"/>
<path fill-rule="evenodd" clip-rule="evenodd" d="M85.048 439.213C85.048 439.213 73.0653 424.362 78.8771 408.077C83.5648 394.94 96.1435 391.346 96.5652 380.281C97.0965 366.328 83.0969 368.246 80.8817 351.018C79.1606 337.63 87.3495 325.317 86.8107 318.196C85.9951 307.424 67.583 301.833 61.2609 285.633C53.2452 265.093 78.2001 260.402 89.3155 267.348C103.268 276.067 103.739 289.076 109.856 296.905C116.802 305.798 138.546 307.794 141.667 329.719C143.647 343.624 135.527 355.706 139.354 367.479C142.197 376.223 159.169 380.084 162.741 399.407C166.586 420.207 151.079 439.213 151.079 439.213H85.048Z" fill="#FFB500"/>
<path fill-rule="evenodd" clip-rule="evenodd" d="M119.795 439.213H121.259C121.784 435.818 126.391 403.736 119.585 365.525C113.723 332.617 95.9587 301.854 81.2886 284.036C81.0347 283.728 80.5794 283.684 80.2705 283.938C79.9621 284.192 79.9179 284.648 80.1718 284.956C88.2056 294.713 96.1613 307.194 102.573 320.099C110.172 335.391 115.561 351.187 118.161 365.779C125.145 404.989 120.041 437.687 119.795 439.213Z" fill="#070707"/>
<path fill-rule="evenodd" clip-rule="evenodd" d="M689.761 345.807C689.761 345.807 685.801 325.261 700.274 318.96C714.747 312.657 717.012 303.222 725.971 300.845C734.693 298.531 747.748 314.118 730.095 330.91C712.443 347.702 705.436 354.468 689.761 345.807Z" fill="#FF4B33"/>
<path fill-rule="evenodd" clip-rule="evenodd" d="M672.466 387.051C672.423 387.051 672.379 387.047 672.336 387.039C671.943 386.968 671.682 386.591 671.753 386.198C679.219 345.265 709.816 324.601 719.87 317.811C721.389 316.785 722.589 315.975 722.989 315.574C723.272 315.291 723.73 315.291 724.012 315.574C724.295 315.857 724.295 316.314 724.012 316.597C723.513 317.096 722.386 317.857 720.68 319.009C710.75 325.716 680.533 346.123 673.177 386.457C673.113 386.806 672.809 387.051 672.466 387.051Z" fill="#141414"/>
<path fill-rule="evenodd" clip-rule="evenodd" d="M654.41 267.037C647.321 268.825 644.135 279.146 650.684 291.187C654.074 297.419 651.714 300.859 651.057 304.941C648.915 318.252 653.766 320.129 654.31 323.72C654.853 327.311 652.134 335.021 652.575 339.695C653.492 349.419 662.553 359.842 674.592 350.52C684.942 342.506 684.735 324.707 680.83 320.922C676.925 317.138 675.947 318.182 678.996 309.971C681.381 303.549 680.043 295.135 675.51 291.256C671.814 288.094 669.638 289.605 669.799 281.313C669.948 273.681 665.425 264.257 654.41 267.037Z" fill="#FF4B33"/>
<path fill-rule="evenodd" clip-rule="evenodd" d="M664.503 381.64C664.48 381.64 664.455 381.639 664.432 381.636C664.034 381.598 663.743 381.244 663.782 380.846C670.412 313.146 659.003 280.982 658.888 280.665C658.75 280.29 658.943 279.875 659.318 279.737C659.692 279.601 660.108 279.793 660.246 280.168C660.366 280.497 663.212 288.398 665.273 304.834C667.17 319.965 668.701 345.46 665.222 380.987C665.186 381.361 664.871 381.64 664.503 381.64Z" fill="#141414"/>
<path fill-rule="evenodd" clip-rule="evenodd" d="M605.037 301.981C601.244 305.92 603.16 316.765 610.966 319.511C615.971 321.271 615.445 325.244 616.642 328.096C620.546 337.394 624.369 336.666 626.134 338.731C627.9 340.797 627.446 347.76 629.154 350.828C632.715 357.229 644.346 359.449 648.303 348.769C651.705 339.588 649.585 329.901 641.865 326.467C638.167 324.822 637.029 326.078 636.044 319.601C635.058 313.124 631.645 308.827 627.233 308.158C623.636 307.611 623.286 309.667 619.197 305.682C615.108 301.697 610.931 295.86 605.037 301.981Z" fill="#FF4B33"/>
<path fill-rule="evenodd" clip-rule="evenodd" d="M651.156 378.06C650.819 378.06 650.518 377.824 650.448 377.481C650.373 377.116 642.691 340.626 615.265 312.788C614.984 312.503 614.988 312.045 615.273 311.764C615.557 311.485 616.015 311.488 616.295 311.772C630.791 326.487 639.689 343.483 644.6 355.15C649.922 367.793 651.847 377.1 651.865 377.193C651.945 377.584 651.692 377.966 651.301 378.046C651.252 378.055 651.204 378.06 651.156 378.06Z" fill="#141414"/>
<path fill-rule="evenodd" clip-rule="evenodd" d="M704.692 372.766H622.557V386.556H628.512L637.666 449.767H689.583L698.736 386.556H704.692V372.766Z" fill="white"/>
<path fill-rule="evenodd" clip-rule="evenodd" d="M623.28 385.832H703.968V373.49H623.28V385.832ZM688.957 449.043H638.292L629.348 387.279H697.9L688.957 449.043ZM704.691 372.043H622.557C622.157 372.043 621.833 372.367 621.833 372.767V386.556C621.833 386.955 622.157 387.279 622.557 387.279H627.886L636.95 449.87C637.001 450.226 637.306 450.49 637.665 450.49H689.583C689.942 450.49 690.247 450.226 690.299 449.87L699.362 387.279H704.691C705.091 387.279 705.415 386.955 705.415 386.556V372.767C705.415 372.367 705.091 372.043 704.691 372.043Z" fill="#141414"/>
<path d="M1 439.382H738.774" stroke="#141414" stroke-width="1.18056" stroke-linecap="round"/>
<path fill-rule="evenodd" clip-rule="evenodd" d="M614.285 437.212L610.57 471.855L592.367 470.748L588.976 437.715L614.285 437.212Z" fill="white"/>
<path fill-rule="evenodd" clip-rule="evenodd" d="M590.003 440.182L593.061 469.97L609.888 470.993L613.193 440.177C613.238 439.764 613.566 439.452 613.957 439.452C614.417 439.452 614.774 439.878 614.721 440.363L611.334 471.948C611.29 472.363 610.959 472.674 610.571 472.674C610.556 472.674 610.541 472.673 610.526 472.673L592.323 471.565C591.948 471.542 591.643 471.234 591.602 470.837L588.473 440.36C588.424 439.875 588.78 439.452 589.238 439.452C589.631 439.452 589.96 439.766 590.003 440.182Z" fill="#141414"/>
<path fill-rule="evenodd" clip-rule="evenodd" d="M573.544 423.831L572.124 468.854L551.462 470.637L542.307 436.758L573.544 423.831Z" fill="white"/>
<path fill-rule="evenodd" clip-rule="evenodd" d="M543.63 438.697L552.028 469.773L571.379 468.103L572.683 428.939C572.7 428.427 573.156 428.059 573.628 428.177C573.986 428.266 574.234 428.609 574.221 428.996L572.893 468.88C572.88 469.293 572.576 469.629 572.187 469.663L551.525 471.446C551.504 471.448 551.482 471.449 551.461 471.449C551.121 471.449 550.817 471.211 550.722 470.86L542.151 439.142C542.015 438.639 542.359 438.133 542.855 438.108C543.211 438.09 543.532 438.334 543.63 438.697Z" fill="#141414"/>
<path fill-rule="evenodd" clip-rule="evenodd" d="M574.644 465.957C574.551 465.57 574.189 465.325 573.816 465.395C573.46 465.462 573.01 465.553 572.48 465.661C569.232 466.319 562.473 467.69 556.067 467.695H556.051C552.278 467.695 551.161 466.126 548.908 464.151C548.73 463.994 548.49 463.938 548.264 463.999C537.27 467.014 527.125 469.675 521.239 473.811C520.204 474.538 516.473 477.711 517.119 479.956C517.417 480.994 518.48 481.52 520.277 481.52C526.839 481.52 540.977 481.558 553.45 481.593C563.542 481.62 572.258 481.644 575.54 481.644C575.886 481.644 576.2 481.479 576.421 481.178C577.713 479.427 575.609 469.95 574.644 465.957Z" fill="#476520"/>
<path fill-rule="evenodd" clip-rule="evenodd" d="M575.408 485H518.687C517.745 485 516.98 484.195 516.98 483.202V482.608C516.98 481.615 517.745 480.809 518.687 480.809H575.408C576.35 480.809 577.114 481.615 577.114 482.608V483.202C577.114 484.195 576.35 485 575.408 485Z" fill="#141414"/>
<path fill-rule="evenodd" clip-rule="evenodd" d="M534.796 471.66C534.508 471.66 534.233 471.49 534.101 471.198C532.894 468.528 530.576 469.181 530.315 469.266C529.911 469.395 529.48 469.157 529.355 468.731C529.229 468.305 529.451 467.854 529.854 467.719C531.169 467.279 534.04 467.295 535.489 470.502C535.672 470.906 535.509 471.389 535.126 471.581C535.019 471.635 534.907 471.66 534.796 471.66Z" fill="#141414"/>
<path fill-rule="evenodd" clip-rule="evenodd" d="M541.588 469.709C541.3 469.709 541.025 469.538 540.893 469.246C539.686 466.576 537.367 467.23 537.107 467.314C536.703 467.443 536.272 467.205 536.147 466.78C536.021 466.354 536.244 465.902 536.647 465.767C537.963 465.328 540.833 465.344 542.282 468.55C542.464 468.954 542.301 469.437 541.918 469.63C541.811 469.683 541.699 469.709 541.588 469.709Z" fill="#141414"/>
<path fill-rule="evenodd" clip-rule="evenodd" d="M612.11 463.441C612.11 463.441 622.77 473.089 617.698 480.467C610.978 482.453 594.917 484.298 587.786 480.726C582.787 478.222 590.692 463.252 590.692 463.252C598.74 464.099 604.616 463.695 612.11 463.441Z" fill="#476520"/>
<path fill-rule="evenodd" clip-rule="evenodd" d="M585.7 482.164C585.775 483.612 587.235 484.512 588.783 484.512H616.388C618.018 484.512 619.114 482.974 618.826 481.321C618.538 479.669 618.059 479.811 616.974 479.811L588.783 479.967C587.625 479.967 585.616 480.561 585.7 482.164Z" fill="#141414"/>
<path fill-rule="evenodd" clip-rule="evenodd" d="M610.45 474.315C610.725 474.315 610.987 474.149 611.109 473.868C611.274 473.486 611.114 473.034 610.751 472.86C610.462 472.72 603.583 469.482 595.909 471.835C595.526 471.953 595.305 472.375 595.417 472.779C595.529 473.183 595.93 473.417 596.313 473.298C603.457 471.109 610.085 474.214 610.151 474.246C610.248 474.293 610.349 474.315 610.45 474.315Z" fill="#141414"/>
<path fill-rule="evenodd" clip-rule="evenodd" d="M608.24 469.263C608.521 469.263 608.789 469.088 608.906 468.798C609.062 468.411 608.891 467.964 608.524 467.799C608.293 467.696 602.834 465.305 598.041 467.725C597.68 467.907 597.529 468.363 597.701 468.742C597.874 469.122 598.306 469.282 598.666 469.1C602.861 466.98 607.908 469.18 607.958 469.202C608.05 469.243 608.146 469.263 608.24 469.263Z" fill="#141414"/>
<path fill-rule="evenodd" clip-rule="evenodd" d="M642.732 308.479C634.095 388.71 636.519 447.11 636.519 447.11C619.082 450.001 601.971 450.011 585.441 444.875L581.454 275.981L560.84 328.055C560.84 328.055 584.676 417.508 580.54 425.014C576.405 432.519 540.274 448.004 530.565 442.194C526.548 439.789 504.868 365.697 505.869 322.694C506.392 300.201 544.182 238.088 546.736 221.611C558.891 220.11 625.107 221.611 625.107 221.611C625.107 221.611 649.857 242.295 642.732 308.479Z" fill="#141414"/>
<path fill-rule="evenodd" clip-rule="evenodd" d="M583.042 232.104C581.49 233.248 578.032 235.481 572.264 237.606C570.201 238.365 569.099 238.249 568.783 237.919C568.569 237.696 568.67 237.237 568.75 236.983C569.374 234.988 572.746 231.856 577.452 231.163C579.131 230.917 581.05 231.321 583.042 232.104ZM588.685 230.526C589.765 230.526 591.024 231.172 592.073 231.711C596.414 233.941 599.977 238.8 600.304 241.138C599.428 240.784 597.46 239.354 595.696 238.071C592.818 235.978 589.37 233.471 585.913 231.722C586.529 231.252 587.214 230.893 587.984 230.633C588.206 230.559 588.441 230.526 588.685 230.526ZM590.05 249.012C590.138 249.012 590.226 248.996 590.312 248.96C590.684 248.807 590.869 248.363 590.724 247.969C588.992 243.246 586.541 236.368 585.6 233.279C588.924 235.004 592.258 237.429 594.877 239.333C598.809 242.193 600.219 243.153 601.19 242.612C601.408 242.49 601.775 242.179 601.775 241.466C601.775 238.26 597.197 232.641 592.705 230.333C591.187 229.554 589.296 228.583 587.546 229.174C586.331 229.583 585.306 230.203 584.428 231.02C581.928 229.927 579.464 229.32 577.253 229.647C572.18 230.394 568.247 233.719 567.377 236.501C566.946 237.879 567.436 238.665 567.767 239.01C568.648 239.929 570.321 239.943 572.739 239.052C576.896 237.521 579.88 235.946 581.861 234.72C580.371 237.915 579.507 242.267 578.598 247.556C578.527 247.972 578.787 248.37 579.18 248.447C579.57 248.521 579.95 248.247 580.021 247.83C581.216 240.881 582.306 236.333 584.181 233.584C585.392 237.641 588.911 247.256 589.376 248.524C589.487 248.827 589.761 249.012 590.05 249.012Z" fill="white"/>
<path fill-rule="evenodd" clip-rule="evenodd" d="M528.241 244.419C526.458 250.22 520.722 270.312 522.135 276.284C523.919 283.826 524.793 289.101 522.26 289.933C519.437 290.859 517.709 286.909 516.526 286.273C516.089 286.038 515.436 286.998 513.776 289.055C510.397 293.243 507.309 296.315 505.056 294.878C503.376 293.807 504.71 291.57 504.71 291.57C504.71 291.57 501.501 296.04 498.731 294.907C497.405 294.364 496.562 293.401 498.458 290.394C496.973 292.627 494.248 293.53 492.998 291.829C492.619 291.313 491.95 290.191 493.709 287.028C491.535 289.118 489.755 285.755 490.516 283.383C492.288 277.851 496.682 274.958 500.233 269.486C503.464 264.506 507.472 241.157 507.472 241.157" fill="white"/>
<path fill-rule="evenodd" clip-rule="evenodd" d="M490.111 283.171C491.821 277.235 497.561 273.745 500.311 268.465C502.775 263.735 505.498 247.533 506.714 241.028C506.88 240.064 508.397 240.28 508.23 241.288C506.658 250.069 505.129 258.873 502.189 267.329C501.44 269.516 500.003 271.404 498.561 273.173C495.894 276.472 492.719 279.336 491.332 283.396C490.718 284.53 491.369 287.98 493.1 286.627C493.869 285.596 498.71 278.837 499.916 280.467C500.079 280.76 499.973 281.129 499.68 281.292C497.399 282.801 495.824 285.359 494.223 287.546C491.556 291.817 495.015 293.85 497.901 290.027C498.557 289.203 503.174 282.113 504.059 283.423C504.277 283.659 504.261 284.028 504.023 284.244C502.082 286.155 500.532 288.503 499.016 290.762C498.551 291.504 498.008 292.455 498.019 293.288C498.024 293.719 498.379 294.02 498.794 294.207C499.935 294.765 501.073 294.132 502.102 293.335C503.547 292.598 508.504 284.78 509.589 286.043C509.812 286.28 509.797 286.654 509.556 286.871C507.971 288.392 506.572 290.232 505.244 292.002C504.801 292.86 504.624 294.001 505.618 294.403C508.05 295.212 510.95 291.166 512.462 289.525C513.16 288.686 513.917 287.711 514.608 286.851C515.137 286.25 515.883 285.11 516.907 285.642C518.481 286.691 519.334 289.058 521.303 289.304C522.652 289.388 522.984 288.177 523.006 286.936C523 283.422 521.883 279.935 521.092 276.517C520.689 274.677 520.831 272.777 520.998 271.039C522.105 261.841 524.694 252.969 527.506 244.193C527.798 243.295 529.254 243.666 528.976 244.645C526.645 253.389 523.662 262.133 522.628 271.125C522.468 272.991 522.442 274.967 522.874 276.692C523.384 279.868 526.674 289.616 522.301 290.711C519.624 291.463 517.882 288.736 516.369 287.082C513.674 289.894 510.597 295.264 506.488 295.908C505.203 295.992 503.793 295.165 503.587 293.822C502.494 294.812 501.223 295.742 499.65 295.754C498.128 295.762 496.416 294.541 496.713 292.868C493.414 294.652 491.04 291.435 492.302 288.389C489.846 287.984 489.624 285.082 490.111 283.171Z" fill="#141414"/>
<path fill-rule="evenodd" clip-rule="evenodd" d="M705.774 113.172C708.003 111.979 708.658 117.086 706.122 121.038C709.447 118.369 717.433 111.864 720.186 113.417C722.968 114.986 718.831 119.48 718.831 119.48C721.67 118.178 725.067 116.336 725.892 118.552C726.782 120.941 721.946 123.846 721.946 123.846C725.54 122.701 726.599 123.017 727.072 124.476C727.83 126.813 723.011 129.169 723.011 129.169C725.286 128.907 727.181 131.275 721.616 134.936C715.477 138.975 702.755 147.861 692.648 160.576C691.204 162.392 674.454 158.533 664.131 149.393C684.346 135.225 702.89 114.717 705.774 113.172Z" fill="white"/>
<path fill-rule="evenodd" clip-rule="evenodd" d="M668.476 145.27C682.911 134.514 696.731 120.173 705.411 112.494C708.647 111.315 708.974 115.39 708.111 118.484C713.303 114.464 718.147 111.382 720.564 112.747C722.43 113.757 722.074 115.979 721.132 117.587C725.801 115.105 728.838 118.722 725.061 122.388C726.431 122.342 727.352 122.845 727.804 124.239C728.416 126.125 726.565 127.829 725.052 128.86C726.805 130.409 726.571 132.427 722.039 135.579C711.073 142.792 701.946 150.681 694.911 159.026C687.447 160.47 717.348 135.852 721.193 134.294C724.532 132.046 725.636 129.979 723.184 129.928L718.345 131.893C717.712 132.159 717.273 131.191 717.89 130.89C717.896 130.887 722.668 128.483 722.672 128.478C724.049 127.803 726.756 125.995 726.341 124.714C726.131 124.067 725.913 123.4 722.254 124.555L715.859 128.197C715.201 128.584 714.591 127.565 715.241 127.167C717.389 125.435 725.562 121.905 725.172 118.821C724.302 117.272 721.047 119.458 719.187 120.162L712.935 123.83C712.667 123.987 712.319 123.909 712.147 123.646C711.969 123.375 712.045 123.011 712.316 122.833L718.324 118.893C719.282 117.666 721.394 115.201 719.808 114.087C717.573 112.826 709.498 119.313 706.844 121.445C706.426 122.049 706.098 123.004 706.134 123.73C706.924 126.577 706.604 130.384 703.994 132.215C703.586 132.491 703.119 131.872 703.516 131.56C703.659 131.444 703.849 131.35 703.911 131.179C703.986 130.972 706.288 128.017 705.145 125.273C704.842 124.543 704.392 123.725 704.597 122.955C704.735 122.105 705.054 121.363 705.475 120.623C707.237 117.991 707.507 113.553 706.138 113.85C697.635 121.629 683.8 135.697 669.406 146.496C668.639 147.103 667.659 145.868 668.476 145.27Z" fill="#141414"/>
<path fill-rule="evenodd" clip-rule="evenodd" d="M562.418 121.986C562.552 122.574 562.747 123.196 563.036 123.832C563.157 124.099 563.42 124.257 563.695 124.257C563.795 124.257 563.897 124.236 563.994 124.192C564.357 124.027 564.519 123.599 564.354 123.235C563.905 122.244 563.714 121.284 563.645 120.485C563.421 106.226 612.058 102.312 613.582 122.424C613.363 123.297 612.993 124.308 612.373 125.013C612.11 125.312 612.139 125.77 612.439 126.034C612.576 126.154 612.746 126.214 612.916 126.214C613.117 126.214 613.317 126.131 613.46 125.968C614.015 125.338 614.405 124.548 614.682 123.774C619.429 124.865 625.674 126.965 630.099 130.166C640.09 137.395 649.487 150.15 652.25 154.065C651.274 154.96 650.325 155.881 649.416 156.836C648.359 157.942 647.344 159.07 646.362 160.254C646.188 160.464 646.218 160.775 646.428 160.949C646.631 161.117 646.929 161.095 647.105 160.904L647.113 160.895C648.12 159.798 649.186 158.727 650.274 157.698C651.176 156.842 653.067 155.241 653.067 155.241L685.542 130.935L709.302 157.392C709.302 157.392 670.752 195.453 652.993 196.468C644.261 196.967 635.49 188.852 628.396 183.108C630.575 208.165 630.027 227.736 630.027 227.736L545.005 227.285C545.005 227.285 549.054 202.101 550.936 177.892C551.084 175.995 546.233 196.149 546.233 196.149L532.651 261.243L499.561 251.73C499.561 251.73 518.688 173.101 521.187 164.416C531.568 128.342 556.451 124.289 556.531 124.097C556.531 124.097 559.671 122.754 562.418 121.986Z" fill="#476520"/>
<path fill-rule="evenodd" clip-rule="evenodd" d="M596.771 98.7141C596.771 98.7141 596.801 110.92 596.801 117.102C596.801 121.652 600.732 120.56 606.271 122.416C604.988 128.837 601.156 133.023 584.727 133.265C574.336 133.418 570.211 130.209 568.212 123.547C573.839 120.883 577.441 121.652 577.441 117.102C577.441 110.92 577.471 98.7141 577.471 98.7141" fill="white"/>
<path fill-rule="evenodd" clip-rule="evenodd" d="M568.068 123.241C569.23 122.679 570.432 122.202 571.643 121.779C572.846 121.348 574.089 120.996 575.15 120.443C575.672 120.16 576.128 119.813 576.429 119.365C576.732 118.916 576.852 118.352 576.923 117.777C576.928 117.473 576.957 117.201 576.947 116.873L576.936 115.917L576.915 114.005L576.747 98.7125C576.747 98.7074 576.747 98.698 576.747 98.693C576.754 98.2937 577.083 97.9747 577.482 97.9811C577.882 97.9874 578.201 98.3165 578.194 98.7161L577.976 114.005L577.949 115.917L577.935 116.873C577.938 117.181 577.9 117.545 577.882 117.877C577.784 118.556 577.617 119.27 577.186 119.881C576.757 120.487 576.153 120.907 575.551 121.213C574.33 121.806 573.092 122.11 571.889 122.51C570.684 122.897 569.503 123.332 568.357 123.852L568.354 123.853C568.188 123.928 567.991 123.858 567.911 123.693C567.83 123.524 567.9 123.323 568.068 123.241Z" fill="#141414"/>
<path fill-rule="evenodd" clip-rule="evenodd" d="M596.763 97.9972C597.162 97.9929 597.49 98.313 597.494 98.7126C597.551 103.772 597.56 108.832 597.535 113.892L597.528 115.789C597.532 116.408 597.51 117.093 597.541 117.623C597.579 118.178 597.71 118.683 597.976 119.064C598.231 119.452 598.655 119.735 599.171 119.955C600.216 120.382 601.482 120.604 602.717 120.887C603.961 121.166 605.215 121.503 606.425 121.957C606.659 122.047 606.792 122.304 606.719 122.548C606.643 122.805 606.374 122.951 606.117 122.875C604.928 122.526 603.716 122.276 602.48 122.056C601.863 121.944 601.239 121.843 600.604 121.718C599.97 121.593 599.321 121.453 598.664 121.194C598.336 121.062 598.006 120.902 597.69 120.686C597.374 120.472 597.08 120.19 596.847 119.868C596.37 119.215 596.18 118.446 596.114 117.749C596.076 117.393 596.077 117.042 596.075 116.738L596.069 115.79L596.056 113.892C596.015 108.834 596.007 103.775 596.047 98.7159C596.051 98.3231 596.368 98.0016 596.763 97.9972Z" fill="#141414"/>
<path fill-rule="evenodd" clip-rule="evenodd" d="M574.582 140.93C574.582 139.323 575.885 138.02 577.492 138.02C579.099 138.02 580.402 139.323 580.402 140.93C580.402 142.286 579.472 143.423 578.216 143.745V156.443C578.216 156.843 577.892 157.166 577.492 157.166C577.093 157.166 576.769 156.843 576.769 156.443V143.745C575.513 143.423 574.582 142.286 574.582 140.93Z" fill="white"/>
<path fill-rule="evenodd" clip-rule="evenodd" d="M592.426 140.583C592.426 138.976 593.729 137.673 595.336 137.673C596.943 137.673 598.245 138.976 598.245 140.583C598.245 141.94 597.316 143.077 596.059 143.398V165.154C596.059 165.554 595.735 165.878 595.336 165.878C594.936 165.878 594.612 165.554 594.612 165.154V143.398C593.356 143.077 592.426 141.94 592.426 140.583Z" fill="white"/>
<path fill-rule="evenodd" clip-rule="evenodd" d="M569.565 84.1565C571.734 66.1678 584.395 65.0391 592.936 66.5924C599.743 67.83 608.451 73.4577 607.681 84.78C611.089 83.6737 613.578 85.7456 614.02 88.4388C614.522 91.4952 612.918 96.665 607.872 95.7746C607.386 104.091 599.822 116.164 583.314 114.956C570.813 114.041 567.591 100.53 569.565 84.1565Z" fill="white"/>
<path fill-rule="evenodd" clip-rule="evenodd" d="M600.954 58.265C600.172 53.9045 589.438 52.7863 587.09 57.2585C575.748 52.9747 567.64 63.6808 569.648 71.3468C564.505 73.359 564.791 83.8658 565.989 83.8658C562.519 84.7428 563.135 91.0742 565.33 91.2739C561.939 94.0669 562.468 103.681 565.549 104.618C556.352 123.214 580.884 128.581 579.344 114.909C585.451 116.759 593.06 115.579 598.2 112.46C598.055 114.731 599.057 117.297 599.594 118.732C602.792 127.275 622.321 127.275 626.661 119.319C631.001 111.362 629.188 105.166 624.377 102.128C631.087 97.3171 629.821 86.5557 623.316 85.303C626.148 77.654 623.706 69.4799 615.233 70.162C615.276 61.0179 607.62 56.9858 600.954 58.265ZM589.638 70.55C589.638 72.0234 593.735 77.0638 599.763 76.5278C599.763 76.5278 598.708 79.5064 600.818 82.9815C605.291 88.7568 607.899 83.6325 611.482 85.7366C614.184 87.4378 613.827 91.8131 611.736 94.0611C610.79 94.9964 609.531 95.3331 607.998 95.0622C607.796 95.0268 607.586 95.0788 607.423 95.2072C606.582 99.231 605.484 104.766 600.327 109.13C594.244 114.669 580.498 117.248 574.319 109.75C569.85 104.951 568.581 92.1245 570.812 81.0944C571.98 78.3585 574.427 76.965 574.885 74.7369C579.985 76.4204 586.898 76.1188 589.638 70.55ZM609.909 87.7905C608.21 86.6687 607.294 88.5464 609.019 89.8744C609.453 90.2089 609.841 91.2548 610.382 91.1579C611.674 90.9264 610.795 88.4502 609.909 87.7905Z" fill="#141414"/>
<path fill-rule="evenodd" clip-rule="evenodd" d="M585.835 105.023C584.269 104.796 582.879 105.44 582.731 106.461C582.583 107.481 583.734 108.493 585.301 108.719C586.868 108.946 588.257 108.302 588.405 107.281C588.553 106.261 587.402 105.249 585.835 105.023ZM585.486 95.2058C585.268 95.225 585.099 95.3982 585.079 95.6091C585.02 96.2365 584.959 96.8637 584.869 97.4557C584.846 97.6025 584.819 97.7465 584.788 97.8781C584.775 97.9378 584.755 98.0025 584.737 98.0535C584.675 98.086 584.612 98.1182 584.55 98.1566C584.384 98.2582 584.22 98.3812 584.067 98.5302C583.763 98.8162 583.493 99.2571 583.464 99.7652C583.431 100.274 583.656 100.754 583.963 101.069C584.272 101.392 584.656 101.588 585.043 101.689C585.237 101.741 585.433 101.764 585.626 101.773C585.819 101.774 586.015 101.801 586.19 101.682C586.422 101.525 586.483 101.209 586.325 100.978C586.288 100.922 586.241 100.877 586.188 100.841L586.092 100.778C585.951 100.685 585.831 100.731 585.707 100.702C585.585 100.685 585.465 100.661 585.356 100.619C585.136 100.544 584.945 100.422 584.824 100.276C584.699 100.131 584.654 99.9793 584.67 99.8513C584.687 99.7232 584.762 99.5779 584.924 99.4404C585.002 99.3714 585.096 99.3066 585.203 99.2484C585.254 99.2173 585.309 99.1884 585.367 99.162L585.41 99.141L585.442 99.1251C585.493 99.0994 585.546 99.0672 585.588 99.0336C585.737 98.907 585.778 98.8162 585.825 98.7349C585.96 98.4459 585.963 98.2774 585.995 98.0893C586.017 97.9088 586.029 97.7378 586.037 97.5692C586.065 96.8987 586.028 96.2561 585.971 95.6127C585.95 95.3664 585.733 95.1841 585.486 95.2058ZM596.966 93.516C596.818 92.4955 595.951 91.7761 595.028 91.9096C594.105 92.043 593.477 92.979 593.625 93.9996C593.772 95.0202 594.64 95.7395 595.563 95.606C596.485 95.4726 597.113 94.537 596.966 93.516ZM578.807 91.2854C577.884 91.1519 577.017 91.8712 576.869 92.8918C576.721 93.9128 577.349 94.8484 578.272 94.9818C579.195 95.1153 580.062 94.3959 580.21 93.3754C580.358 92.3544 579.729 91.4188 578.807 91.2854ZM595.268 84.9525C594.668 84.95 594.179 85.4343 594.177 86.0339C594.174 86.6335 594.658 87.1217 595.258 87.1243C595.284 87.1246 595.312 87.1236 595.337 87.1217C596.307 87.0548 597.301 87.3228 598.203 87.8725C598.656 88.1438 599.082 88.4837 599.474 88.8729C599.865 89.2645 600.231 89.6899 600.632 90.1195L600.645 90.1325C600.876 90.3802 601.265 90.3936 601.512 90.1622C601.696 89.9904 601.751 89.7311 601.672 89.5079C601.452 88.8899 601.109 88.3188 600.694 87.7973C600.281 87.2736 599.806 86.7843 599.26 86.3583C598.715 85.9315 598.092 85.5815 597.417 85.3312C596.741 85.0806 596.009 84.9558 595.277 84.9525H595.268ZM579.808 84.6005C579.742 84.5983 579.67 84.603 579.607 84.6121C578.988 84.7043 578.363 84.8056 577.733 84.9491C577.104 85.0942 576.47 85.2992 575.849 85.5875C575.232 85.8768 574.62 86.2583 574.132 86.7683C573.64 87.2728 573.276 87.8742 573.048 88.4901C572.915 88.8471 573.097 89.2434 573.454 89.3762C573.758 89.489 574.092 89.3733 574.265 89.1154L574.272 89.1049C574.874 88.2098 575.572 87.5646 576.53 87.2243C577.006 87.0551 577.532 86.9715 578.072 86.9165C578.613 86.8619 579.173 86.8504 579.738 86.8681C580.364 86.8873 580.888 86.3954 580.907 85.7694C580.926 85.1434 580.435 84.6197 579.808 84.6005Z" fill="#141414"/>
<path fill-rule="evenodd" clip-rule="evenodd" d="M594.577 102.767C593.693 102.354 593.055 103.727 593.937 104.138C594.822 104.551 595.46 103.178 594.577 102.767ZM597.995 104.074C599.403 103.835 597.849 102.017 597.364 103.178C597.06 103.637 597.416 104.286 597.995 104.074ZM577.813 100.605C576.92 100.597 576.907 101.985 577.802 101.992C578.695 102 578.708 100.613 577.813 100.605ZM596.098 100.189C595.563 99.9398 595.176 100.771 595.711 101.02C596.246 101.27 596.633 100.439 596.098 100.189ZM593.442 99.2721C592.712 98.9318 592.185 100.065 592.914 100.405C593.644 100.745 594.171 99.6124 593.442 99.2721ZM575.843 99.484C575.899 98.3318 573.896 99.2244 574.967 99.9766C575.362 100.381 575.913 99.9835 575.843 99.484ZM579.821 98.0873C579.083 98.0811 579.072 99.2268 579.811 99.233C580.548 99.2395 580.559 98.0938 579.821 98.0873ZM577.141 97.0006C576.6 96.9959 576.592 97.8364 577.134 97.8407C577.675 97.8454 577.682 97.0053 577.141 97.0006Z" fill="#476520"/>
<path fill-rule="evenodd" clip-rule="evenodd" d="M128.918 369.524L103.957 458.994H114.643L151.157 369.524H128.918Z" fill="#FF4B33"/>
<path fill-rule="evenodd" clip-rule="evenodd" d="M231.432 369.524L271.868 459.153H278.702L254.213 369.524H231.432Z" fill="#FF4B33"/>
<path fill-rule="evenodd" clip-rule="evenodd" d="M254.939 370.668H126.452C126.128 370.668 125.838 370.465 125.728 370.16C125.392 369.226 91.9369 276.322 75.5436 230.422C73.8022 225.545 75.2371 221.374 79.1988 219.795C86.3879 216.93 102.531 223.117 115.242 251.92L147.059 334.026H254.939C255.363 334.026 255.708 334.371 255.708 334.796V369.899C255.708 370.324 255.363 370.668 254.939 370.668Z" fill="#141414"/>
<path fill-rule="evenodd" clip-rule="evenodd" d="M126.993 369.13H254.169V335.565H146.532C146.215 335.565 145.93 335.37 145.815 335.074L113.821 252.509C102.213 226.207 86.9188 218.373 79.7685 221.224C76.5962 222.489 75.5325 225.815 76.9927 229.904C92.754 274.035 124.289 361.62 126.993 369.13Z" fill="white"/>
<path fill-rule="evenodd" clip-rule="evenodd" d="M270.707 424.804L275.611 443.12L301.11 445.245L299.702 427.477" fill="white"/>
<path fill-rule="evenodd" clip-rule="evenodd" d="M301.11 445.968C301.09 445.968 301.07 445.967 301.05 445.965L275.551 443.841C275.354 443.825 275.173 443.729 275.048 443.576C274.925 443.423 274.868 443.225 274.893 443.029L269.989 424.713C270.04 424.316 270.409 424.035 270.798 424.086C271.194 424.137 271.475 424.499 271.425 424.895L276.423 442.463L300.601 444.476L299.015 427.251C299.14 426.872 299.547 426.664 299.928 426.789C300.307 426.913 300.514 427.322 300.39 427.702L301.797 445.47C301.699 445.769 301.42 445.968 301.11 445.968Z" fill="#141414"/>
<path fill-rule="evenodd" clip-rule="evenodd" d="M274.568 442.131C274.661 441.763 275.023 441.53 275.396 441.597C275.752 441.661 276.202 441.747 276.732 441.85C279.98 442.474 286.739 443.775 293.145 443.78H293.161C296.934 443.78 300.253 442.748 302.505 440.873C302.684 440.724 302.924 440.671 303.15 440.729C314.144 443.591 322.087 445.659 327.973 449.585C329.007 450.275 332.738 453.287 332.093 455.417C331.794 456.402 330.732 456.902 328.935 456.902C322.373 456.902 308.235 456.938 295.762 456.971C285.669 456.997 276.954 457.02 273.672 457.02C273.325 457.02 273.012 456.863 272.791 456.578C271.498 454.915 273.603 445.92 274.568 442.131Z" fill="#476520"/>
<path fill-rule="evenodd" clip-rule="evenodd" d="M273.804 460.206H330.525C331.467 460.206 332.231 459.441 332.231 458.499V457.935C332.231 456.992 331.467 456.228 330.525 456.228H273.804C272.862 456.228 272.097 456.992 272.097 457.935V458.499C272.097 459.441 272.862 460.206 273.804 460.206Z" fill="#141414"/>
<path fill-rule="evenodd" clip-rule="evenodd" d="M314.416 447.544C314.704 447.544 314.979 447.382 315.111 447.105C316.318 444.571 318.636 445.191 318.897 445.271C319.301 445.393 319.731 445.167 319.857 444.764C319.983 444.359 319.76 443.931 319.357 443.803C318.042 443.385 315.172 443.401 313.722 446.444C313.539 446.828 313.702 447.286 314.086 447.469C314.193 447.52 314.305 447.544 314.416 447.544Z" fill="#141414"/>
<path fill-rule="evenodd" clip-rule="evenodd" d="M307.624 445.691C307.911 445.691 308.187 445.53 308.319 445.253C309.526 442.718 311.844 443.338 312.105 443.418C312.509 443.541 312.939 443.315 313.065 442.911C313.19 442.507 312.968 442.078 312.565 441.95C311.249 441.533 308.379 441.549 306.93 444.591C306.748 444.975 306.91 445.434 307.294 445.616C307.401 445.667 307.513 445.691 307.624 445.691Z" fill="#141414"/>
<path fill-rule="evenodd" clip-rule="evenodd" d="M210.368 425.168L208.039 443.484L233.538 445.609L239.364 427.841" fill="white"/>
<path fill-rule="evenodd" clip-rule="evenodd" d="M233.538 446.331C233.518 446.331 233.498 446.331 233.478 446.329L207.979 444.205C207.782 444.189 207.601 444.093 207.476 443.94C207.353 443.786 207.296 443.589 207.321 443.393L209.65 425.077C209.701 424.68 210.07 424.399 210.459 424.45C210.855 424.501 211.136 424.863 211.086 425.259L208.851 442.827L233.029 444.84L238.676 427.615C238.801 427.236 239.208 427.028 239.589 427.153C239.968 427.277 240.175 427.686 240.051 428.066L234.225 445.833C234.127 446.132 233.848 446.331 233.538 446.331Z" fill="#141414"/>
<path fill-rule="evenodd" clip-rule="evenodd" d="M206.996 442.495C207.089 442.127 207.451 441.894 207.824 441.961C208.18 442.025 208.63 442.111 209.16 442.214C212.408 442.838 219.167 444.139 225.573 444.144H225.589C229.362 444.144 232.681 443.112 234.933 441.237C235.112 441.088 235.352 441.035 235.578 441.093C246.572 443.955 254.515 446.023 260.401 449.949C261.435 450.639 265.166 453.651 264.521 455.781C264.222 456.766 263.16 457.266 261.363 457.266C254.801 457.266 240.663 457.302 228.19 457.335C218.098 457.361 209.382 457.384 206.1 457.384C205.753 457.384 205.44 457.227 205.219 456.941C203.926 455.279 206.031 446.284 206.996 442.495Z" fill="#476520"/>
<path fill-rule="evenodd" clip-rule="evenodd" d="M206.232 460.569H262.953C263.895 460.569 264.659 459.805 264.659 458.862V458.299C264.659 457.356 263.895 456.592 262.953 456.592H206.232C205.29 456.592 204.525 457.356 204.525 458.299V458.862C204.525 459.805 205.29 460.569 206.232 460.569Z" fill="#141414"/>
<path fill-rule="evenodd" clip-rule="evenodd" d="M246.844 447.908C247.132 447.908 247.407 447.746 247.539 447.469C248.746 444.935 251.064 445.555 251.325 445.635C251.729 445.757 252.159 445.531 252.285 445.128C252.411 444.723 252.188 444.295 251.785 444.167C250.47 443.749 247.6 443.765 246.15 446.808C245.967 447.192 246.13 447.65 246.514 447.833C246.621 447.884 246.733 447.908 246.844 447.908Z" fill="#141414"/>
<path fill-rule="evenodd" clip-rule="evenodd" d="M240.052 446.055C240.339 446.055 240.615 445.894 240.747 445.617C241.954 443.082 244.272 443.702 244.533 443.782C244.937 443.905 245.367 443.679 245.493 443.275C245.618 442.871 245.396 442.442 244.993 442.314C243.677 441.897 240.807 441.913 239.358 444.955C239.175 445.339 239.338 445.798 239.722 445.98C239.829 446.031 239.941 446.055 240.052 446.055Z" fill="#141414"/>
<path fill-rule="evenodd" clip-rule="evenodd" d="M252.753 290.381H211.284C200.3 290.381 239.357 339.503 239.357 339.503C239.547 344.049 240.074 426.05 240.074 426.05C266.675 431.517 288.297 433.087 306.533 430.182C306.533 430.182 296.975 359.06 289.058 318.209C284.959 297.054 267.543 290.381 252.753 290.381Z" fill="#141414"/>
<g style="mix-blend-mode:overlay">
<path fill-rule="evenodd" clip-rule="evenodd" d="M275.206 425.897C275.605 425.829 275.972 426.1 276.036 426.494L276.733 430.778C276.797 431.172 276.529 431.544 276.135 431.608C276.096 431.615 276.057 431.617 276.018 431.617C275.67 431.617 275.363 431.365 275.305 431.01L274.609 426.727C274.545 426.332 274.812 425.961 275.206 425.897ZM273.813 417.329C274.208 417.263 274.579 417.533 274.643 417.927L275.34 422.211C275.404 422.605 275.136 422.977 274.742 423.041C274.703 423.048 274.664 423.05 274.625 423.05C274.277 423.05 273.97 422.798 273.912 422.443L273.216 418.159C273.152 417.765 273.419 417.393 273.813 417.329ZM272.421 408.762C272.814 408.696 273.187 408.966 273.251 409.36L273.947 413.643C274.011 414.038 273.743 414.409 273.349 414.473C273.31 414.48 273.271 414.483 273.232 414.483C272.884 414.483 272.577 414.231 272.519 413.876L271.823 409.592C271.759 409.198 272.027 408.826 272.421 408.762ZM271.028 400.195C271.423 400.129 271.794 400.398 271.858 400.792L272.554 405.076C272.619 405.471 272.351 405.842 271.957 405.906C271.917 405.913 271.878 405.916 271.84 405.916C271.491 405.916 271.184 405.664 271.127 405.309L270.43 401.025C270.366 400.63 270.634 400.259 271.028 400.195ZM269.635 391.628C270.029 391.562 270.401 391.831 270.465 392.225L271.161 396.509C271.226 396.903 270.958 397.275 270.564 397.339C270.524 397.346 270.485 397.348 270.447 397.348C270.098 397.348 269.791 397.096 269.734 396.741L269.037 392.458C268.973 392.063 269.241 391.692 269.635 391.628ZM268.242 383.061C268.636 382.994 269.008 383.264 269.072 383.658L269.768 387.942C269.833 388.336 269.565 388.708 269.171 388.772C269.131 388.779 269.092 388.781 269.054 388.781C268.705 388.781 268.398 388.529 268.341 388.174L267.644 383.891C267.58 383.496 267.848 383.125 268.242 383.061ZM266.85 374.494C267.247 374.426 267.616 374.697 267.68 375.091L268.376 379.374C268.44 379.769 268.172 380.14 267.778 380.204C267.739 380.211 267.7 380.214 267.661 380.214C267.313 380.214 267.006 379.962 266.948 379.607L266.252 375.324C266.188 374.929 266.455 374.558 266.85 374.494ZM265.457 365.926C265.85 365.86 266.223 366.129 266.287 366.524L266.983 370.807C267.047 371.202 266.78 371.573 266.385 371.637C266.346 371.644 266.307 371.647 266.268 371.647C265.92 371.647 265.613 371.395 265.555 371.04L264.859 366.756C264.795 366.362 265.062 365.99 265.457 365.926ZM264.064 357.359C264.461 357.292 264.83 357.562 264.894 357.957L265.59 362.24C265.654 362.635 265.387 363.006 264.992 363.07C264.953 363.077 264.914 363.079 264.876 363.079C264.527 363.079 264.22 362.827 264.162 362.473L263.466 358.189C263.402 357.795 263.669 357.423 264.064 357.359ZM262.671 348.792C263.069 348.728 263.437 348.995 263.501 349.39L264.197 353.673C264.262 354.068 263.994 354.439 263.6 354.503C263.56 354.51 263.521 354.512 263.483 354.512C263.134 354.512 262.827 354.26 262.77 353.906L262.073 349.621C262.009 349.228 262.277 348.856 262.671 348.792ZM261.278 340.224C261.675 340.161 262.044 340.428 262.108 340.822L262.804 345.106C262.869 345.5 262.601 345.872 262.207 345.936C262.167 345.942 262.128 345.945 262.09 345.945C261.741 345.945 261.434 345.693 261.377 345.338L260.68 341.054C260.616 340.66 260.884 340.288 261.278 340.224Z" fill="white" fill-opacity="0.8"/>
</g>
<path fill-rule="evenodd" clip-rule="evenodd" d="M224.687 290.381H140.898C140.898 290.381 132.422 320.599 149.639 337.127C165.507 352.361 201.774 346.911 209.367 345.567L210.614 337.721C210.676 337.326 211.052 337.058 211.441 337.12C211.836 337.183 212.105 337.553 212.042 337.948L210.756 346.042C210.15 355.422 198.821 432.561 198.821 432.561C220.459 438.909 248.349 439.5 262.838 436.692C262.838 436.692 263.103 364.264 260.199 319.685C258.949 300.498 243.697 290.381 224.687 290.381Z" fill="#0B379B"/>
<g style="mix-blend-mode:overlay">
<path fill-rule="evenodd" clip-rule="evenodd" d="M219.356 432.862C219.754 432.895 220.051 433.244 220.018 433.642L219.839 435.805C219.807 436.182 219.491 436.468 219.119 436.468C219.098 436.468 219.078 436.467 219.058 436.465C218.659 436.432 218.364 436.082 218.397 435.684L218.576 433.523C218.609 433.125 218.956 432.825 219.356 432.862ZM220.035 424.468C220.433 424.5 220.73 424.848 220.698 425.246C220.57 426.848 220.453 428.301 220.349 429.581C220.319 429.96 220.002 430.246 219.629 430.246C219.61 430.246 219.59 430.245 219.57 430.243C219.172 430.211 218.875 429.862 218.908 429.464C219.012 428.184 219.128 426.732 219.256 425.131C219.288 424.733 219.635 424.44 220.035 424.468ZM220.717 415.8C221.116 415.831 221.413 416.179 221.382 416.577C221.265 418.088 221.151 419.536 221.043 420.912C221.013 421.291 220.696 421.578 220.322 421.578C220.303 421.578 220.284 421.578 220.265 421.576C219.866 421.545 219.569 421.196 219.6 420.798C219.709 419.423 219.822 417.975 219.94 416.465C219.971 416.067 220.318 415.774 220.717 415.8ZM221.38 407.134C221.779 407.164 222.077 407.511 222.047 407.909C221.935 409.39 221.824 410.837 221.717 412.243C221.688 412.623 221.371 412.911 220.996 412.911C220.978 412.911 220.959 412.911 220.941 412.909C220.542 412.879 220.244 412.531 220.274 412.133C220.382 410.727 220.492 409.28 220.604 407.8C220.634 407.402 220.986 407.103 221.38 407.134ZM222.023 398.467C222.421 398.496 222.721 398.843 222.692 399.241C222.584 400.706 222.478 402.153 222.371 403.576C222.343 403.956 222.026 404.245 221.651 404.245C221.633 404.245 221.614 404.244 221.596 404.243C221.198 404.213 220.899 403.866 220.929 403.468C221.035 402.045 221.142 400.6 221.248 399.136C221.278 398.737 221.622 398.441 222.023 398.467ZM222.643 389.799C223.041 389.827 223.342 390.173 223.313 390.571C223.211 392.025 223.109 393.472 223.006 394.907C222.978 395.287 222.661 395.578 222.285 395.578C222.268 395.578 222.25 395.577 222.232 395.576C221.834 395.548 221.534 395.201 221.563 394.803C221.666 393.369 221.768 391.923 221.87 390.47C221.899 390.072 222.25 389.776 222.643 389.799ZM223.236 381.128C223.634 381.154 223.936 381.499 223.909 381.898C223.812 383.344 223.714 384.792 223.615 386.237C223.589 386.618 223.271 386.91 222.894 386.91C222.877 386.91 222.86 386.909 222.843 386.908C222.445 386.881 222.144 386.536 222.172 386.137C222.271 384.693 222.369 383.246 222.466 381.801C222.492 381.403 222.832 381.093 223.236 381.128ZM223.795 372.462C224.194 372.487 224.497 372.83 224.472 373.229C224.382 374.665 224.289 376.113 224.195 377.567C224.17 377.949 223.851 378.243 223.474 378.243C223.458 378.243 223.442 378.242 223.426 378.241C223.027 378.215 222.725 377.871 222.751 377.472C222.846 376.02 222.938 374.573 223.028 373.138C223.053 372.74 223.404 372.438 223.795 372.462ZM224.31 363.787C224.709 363.809 225.014 364.151 224.992 364.55C224.911 365.976 224.826 367.424 224.738 368.89C224.715 369.274 224.396 369.57 224.017 369.57C224.002 369.57 223.987 369.57 223.972 369.568C223.574 369.545 223.27 369.202 223.294 368.803C223.382 367.339 223.466 365.892 223.547 364.468C223.57 364.069 223.907 363.768 224.31 363.787ZM224.763 355.108C225.162 355.127 225.47 355.466 225.451 355.865C225.382 357.276 225.309 358.726 225.23 360.208C225.21 360.594 224.891 360.893 224.509 360.893C224.496 360.893 224.483 360.893 224.47 360.892C224.071 360.871 223.765 360.531 223.786 360.132C223.864 358.652 223.938 357.204 224.005 355.795C224.025 355.396 224.363 355.091 224.763 355.108ZM225.113 346.422C225.513 346.435 225.826 346.77 225.812 347.169C225.767 348.552 225.711 350.006 225.648 351.519C225.631 351.908 225.311 352.212 224.925 352.212C224.915 352.212 224.905 352.211 224.895 352.211C224.495 352.194 224.185 351.857 224.202 351.458C224.265 349.95 224.321 348.5 224.367 347.121C224.38 346.722 224.72 346.403 225.113 346.422ZM225.248 337.729C225.647 337.729 225.97 338.051 225.972 338.45L225.973 339.04C225.973 340.157 225.959 341.427 225.931 342.814C225.923 343.208 225.601 343.523 225.208 343.523H225.193C224.794 343.515 224.477 343.184 224.485 342.785C224.512 341.407 224.526 340.147 224.526 339.04L224.525 338.455C224.524 338.056 224.846 337.73 225.245 337.729H225.248ZM222.647 330.007C222.894 329.694 223.349 329.641 223.662 329.889C224.319 330.409 224.849 330.933 225.237 331.445C225.453 331.74 225.683 332.271 225.826 334.059C225.858 334.457 225.561 334.806 225.163 334.838C225.143 334.84 225.124 334.84 225.105 334.84C224.731 334.84 224.415 334.553 224.384 334.175C224.262 332.653 224.091 332.332 224.071 332.301C223.769 331.904 223.325 331.468 222.764 331.023C222.451 330.775 222.398 330.32 222.647 330.007ZM214.898 326.108C215.049 325.739 215.472 325.561 215.842 325.714C217.343 326.331 218.692 326.944 219.852 327.535C220.208 327.717 220.349 328.152 220.167 328.508C220.039 328.759 219.786 328.903 219.522 328.903C219.412 328.903 219.299 328.878 219.194 328.824C218.069 328.25 216.757 327.654 215.292 327.051C214.922 326.9 214.746 326.477 214.898 326.108ZM206.703 323.208C206.826 322.828 207.234 322.621 207.614 322.743C209.081 323.219 210.472 323.692 211.75 324.15C212.126 324.285 212.322 324.699 212.187 325.075C212.082 325.37 211.803 325.555 211.506 325.555C211.426 325.555 211.343 325.541 211.263 325.512C209.998 325.059 208.62 324.591 207.168 324.119C206.788 323.996 206.58 323.588 206.703 323.208ZM198.373 320.719C198.482 320.335 198.882 320.112 199.267 320.221C200.723 320.636 202.131 321.047 203.449 321.444C203.832 321.559 204.049 321.962 203.934 322.345C203.839 322.658 203.552 322.86 203.242 322.86C203.172 322.86 203.102 322.85 203.033 322.829C201.721 322.434 200.32 322.025 198.871 321.613C198.487 321.504 198.264 321.104 198.373 320.719ZM189.982 318.453C190.084 318.066 190.478 317.836 190.866 317.936C192.261 318.302 193.666 318.676 195.069 319.057C195.455 319.162 195.683 319.559 195.578 319.944C195.49 320.267 195.199 320.479 194.88 320.479C194.817 320.479 194.753 320.47 194.69 320.453C193.291 320.073 191.89 319.7 190.499 319.336C190.112 319.234 189.881 318.839 189.982 318.453ZM181.558 316.302C181.655 315.914 182.047 315.678 182.436 315.777C183.808 316.123 185.218 316.48 186.652 316.847C187.039 316.945 187.273 317.339 187.174 317.726C187.09 318.053 186.796 318.271 186.474 318.271C186.414 318.271 186.354 318.263 186.294 318.248C184.862 317.882 183.454 317.525 182.082 317.18C181.695 317.082 181.46 316.689 181.558 316.302ZM173.127 314.17C173.226 313.783 173.62 313.549 174.007 313.649C175.329 313.988 176.74 314.345 178.219 314.717C178.606 314.815 178.841 315.207 178.744 315.595C178.662 315.923 178.367 316.142 178.043 316.142C177.985 316.142 177.925 316.135 177.866 316.12C176.384 315.747 174.972 315.39 173.648 315.05C173.261 314.951 173.028 314.557 173.127 314.17ZM164.766 311.769C164.895 311.391 165.306 311.189 165.684 311.318C166.666 311.653 168.017 312.055 169.813 312.545C170.199 312.651 170.426 313.048 170.32 313.434C170.233 313.755 169.941 313.967 169.623 313.967C169.56 313.967 169.496 313.958 169.432 313.941C167.606 313.442 166.227 313.032 165.217 312.687C164.839 312.558 164.637 312.146 164.766 311.769ZM167.126 292.061C167.523 292.013 167.884 292.291 167.934 292.688C167.952 292.828 168.362 296.172 167.697 299.907C166.877 304.506 164.763 307.653 161.561 309.093C161.714 309.215 161.864 309.341 162.02 309.455C162.344 309.689 162.415 310.142 162.181 310.465C162.039 310.66 161.819 310.763 161.595 310.763C161.448 310.763 161.299 310.718 161.171 310.625C159.977 309.759 158.891 308.69 157.94 307.448C157.697 307.131 157.758 306.677 158.075 306.434C158.392 306.192 158.846 306.252 159.089 306.569C159.486 307.088 159.911 307.568 160.356 308.017C167.965 305.324 166.515 292.994 166.499 292.869C166.449 292.472 166.73 292.111 167.126 292.061ZM154.678 298.499C155.064 298.398 155.459 298.627 155.562 299.013C155.937 300.43 156.409 301.766 156.965 302.985C157.13 303.349 156.97 303.778 156.607 303.943C156.51 303.988 156.407 304.009 156.307 304.009C156.033 304.009 155.77 303.852 155.649 303.586C155.059 302.292 154.559 300.879 154.163 299.383C154.061 298.997 154.291 298.601 154.678 298.499ZM153.887 292.055C154.282 292.055 154.605 292.373 154.61 292.769C154.61 292.777 154.622 293.588 154.772 294.854C154.819 295.251 154.536 295.611 154.139 295.658C154.11 295.661 154.082 295.663 154.053 295.663C153.692 295.663 153.379 295.393 153.335 295.025C153.185 293.756 153.166 292.927 153.164 292.802L153.164 292.787C153.159 292.388 153.479 292.06 153.878 292.055H153.887Z" fill="white" fill-opacity="0.8"/>
</g>
<path fill-rule="evenodd" clip-rule="evenodd" d="M140.742 289.957C140.24 285.872 136.54 258.957 135.679 243.734C129.543 245.028 128.695 217.118 136.629 199.242C149.267 170.766 192.652 179.669 192.652 179.669C192.652 179.669 205.614 179.062 218.41 189.535C224.13 194.216 230.429 204.669 233.562 216.147C232.581 219.321 222.214 233.55 218.434 235.971C224.277 264.353 228.901 289.957 228.901 289.957C228.901 289.957 153.572 291.133 140.742 289.957Z" fill="#476520"/>
<path fill-rule="evenodd" clip-rule="evenodd" d="M228.045 289.623C227.22 284.918 222.933 261.411 217.725 236.117C217.664 235.824 217.791 235.524 218.044 235.362C221.696 233.023 231.561 219.42 232.805 216.123C229.833 205.386 223.881 194.947 217.952 190.095C205.539 179.935 192.812 180.385 192.686 180.392C192.625 180.393 192.566 180.39 192.507 180.378C192.399 180.356 181.598 178.187 169.423 179.5C162.309 180.267 156.125 182.055 151.043 184.815C144.731 188.243 140.104 193.195 137.29 199.536C134.206 206.485 132.168 215.764 131.699 224.993C131.281 233.225 132.218 240.035 134.085 242.342C134.698 243.099 135.203 243.096 135.529 243.027C135.736 242.984 135.951 243.032 136.118 243.16C136.286 243.288 136.389 243.483 136.401 243.694C137.145 256.84 140.206 277.94 141.358 286.836C141.485 287.815 141.588 288.61 141.661 289.185C155.006 290.166 219.917 289.89 228.045 289.623ZM140.95 290.578C140.612 290.547 140.34 290.284 140.299 289.946C140.231 289.397 140.101 288.39 139.923 287.022C138.79 278.269 135.812 257.808 134.998 244.486C134.373 244.419 133.65 244.104 132.96 243.252C130.849 240.644 129.813 233.62 130.255 224.92C130.732 215.52 132.814 206.054 135.968 198.949C141.246 187.056 152.773 179.832 169.303 178.058C181.107 176.79 191.639 178.736 192.709 178.943C193.989 178.899 206.421 178.788 218.868 188.975C225.05 194.034 231.236 204.877 234.26 215.956C234.296 216.089 234.294 216.229 234.253 216.36C233.318 219.387 223.511 233.072 219.238 236.291C224.972 264.187 229.568 289.93 229.614 290.195C229.649 290.401 229.594 290.613 229.462 290.775C229.33 290.937 229.134 291.034 228.925 291.042C226.454 291.124 179.111 290.897 154.153 290.897C148.135 290.897 143.423 290.805 140.95 290.578Z" fill="#141414"/>
<path fill-rule="evenodd" clip-rule="evenodd" d="M174.783 168.549C174.783 168.549 174.292 181.004 169.146 182.783C167.746 189.783 177.233 194.563 184.445 194.224C198.405 193.569 194.06 182.158 193.1 182.127C193.128 180.697 193.899 169.999 193.899 169.999L174.783 168.549Z" fill="white"/>
<path fill-rule="evenodd" clip-rule="evenodd" d="M169.833 183.333C169.583 185.164 170.151 186.899 171.524 188.496C174.188 191.596 179.606 193.685 184.409 193.456C189.207 193.231 192.291 191.634 193.328 188.838C194.303 186.212 193.23 183.364 192.796 182.834C192.517 182.714 192.325 182.434 192.331 182.112C192.355 180.888 192.899 173.199 193.077 170.707L175.505 169.375C175.3 172.16 174.296 181.255 169.833 183.333ZM183.711 195.01C178.673 195.01 173.162 192.761 170.357 189.499C168.585 187.438 167.906 185.063 168.392 182.632C168.446 182.364 168.637 182.145 168.895 182.056C172.705 180.739 173.883 171.837 174.015 168.519C174.023 168.31 174.116 168.114 174.272 167.975C174.428 167.836 174.635 167.768 174.842 167.782L193.957 169.231C194.38 169.264 194.697 169.631 194.666 170.054C194.659 170.154 193.991 179.433 193.883 181.766C194.72 182.668 195.252 184.879 195.263 186.446C195.279 188.64 194.526 190.555 193.086 191.983C191.256 193.798 188.361 194.81 184.481 194.993C184.226 195.004 183.969 195.01 183.711 195.01Z" fill="#141414"/>
<path fill-rule="evenodd" clip-rule="evenodd" d="M233.534 216.036L213.693 218.816L215.884 231.62C215.884 231.62 187.331 228.855 177.523 225.608C172.587 223.974 166.207 225.793 163.707 230.93C162.385 233.647 163.237 240.719 163.237 240.719C163.237 240.719 172.434 240.593 175.061 240.593C175.33 240.593 175.677 240.683 176.092 240.845L162.888 240.986L162.226 221.929L131.144 222.322C131.144 222.322 125.241 263.367 148.865 269.758C170.39 275.58 196.397 255.874 198.43 254.299C208.53 259.556 220.538 263.68 231.845 260.793C246.145 257.143 234.118 217.654 233.534 216.036Z" fill="white"/>
<path fill-rule="evenodd" clip-rule="evenodd" d="M236.15 256.352C235.08 258.372 233.613 259.595 231.666 260.092C214.187 264.554 195.183 252.09 183.828 244.643C180.073 242.18 177.774 240.697 176.26 240.133C176.256 240.129 176.252 240.125 176.248 240.12L176.224 240.121C175.773 239.956 175.389 239.87 175.061 239.87C172.87 239.87 166.042 239.958 163.886 239.987C163.666 237.709 163.448 233.116 164.358 231.246C166.26 227.337 171.619 224.416 177.296 226.295C187.041 229.521 214.487 232.212 215.801 232.339L220.527 232.969C220.559 232.973 220.591 232.976 220.623 232.976C220.98 232.976 221.291 232.711 221.339 232.348C221.392 231.952 221.114 231.588 220.718 231.535L216.508 230.974L214.532 219.429L233.035 216.836C233.656 218.822 235.537 225.365 236.828 232.855C238.718 243.823 238.483 251.948 236.15 256.352ZM157.238 270.099C154.472 270.099 151.723 269.781 149.054 269.06C139.571 266.494 133.788 257.921 131.866 243.576C130.618 234.258 131.501 225.401 131.782 223.037L161.528 222.661L162.165 241.011C162.179 241.404 162.505 241.706 162.896 241.71L175.972 241.57C177.458 242.196 180.085 243.917 183.035 245.852C186.939 248.413 191.733 251.555 197.066 254.417C192.597 257.696 174.544 270.1 157.238 270.099ZM234.214 215.79C234.098 215.469 233.773 215.273 233.434 215.319L214.267 218.005L211.86 206.076C211.78 205.685 211.398 205.431 211.008 205.51C210.616 205.59 210.363 205.971 210.441 206.363L212.982 218.95L215.011 230.806C209.992 230.294 186.37 227.775 177.75 224.922C175.147 224.059 172.126 224.106 169.46 225.048C166.715 226.019 164.522 227.863 163.239 230.262L162.953 222.02C162.956 221.989 162.961 221.958 162.961 221.927L162.707 207.207C162.701 206.808 162.388 206.482 161.971 206.496C161.572 206.503 161.254 206.833 161.261 207.232L161.502 221.215L131.135 221.598C130.779 221.603 130.479 221.866 130.428 222.219C130.413 222.322 128.955 232.707 130.428 243.739C132.403 258.522 138.713 267.761 148.676 270.456C151.478 271.214 154.352 271.541 157.226 271.541C166.446 271.541 175.656 268.176 182.434 264.902C190.51 261 196.699 256.513 198.486 255.165C206.27 259.191 215.103 262.481 223.958 262.481C226.654 262.481 229.353 262.176 232.024 261.494C234.356 260.898 236.174 259.396 237.428 257.029C243.636 245.312 234.316 216.071 234.214 215.79Z" fill="#141414"/>
<path fill-rule="evenodd" clip-rule="evenodd" d="M200.53 148.678C197.896 132.569 190.025 132.096 175.332 133.201C168.433 133.719 159.821 139.967 160.592 151.289C156.56 149.746 154.299 152.287 154.435 155.324C154.558 158.051 155.792 161.644 160.808 161.644C161.295 169.96 166.723 183.357 183.772 183.357C201.18 183.357 202.815 162.648 200.53 148.678Z" fill="white"/>
<path fill-rule="evenodd" clip-rule="evenodd" d="M195.273 177.668C188.024 186.339 171.549 182.833 166.021 174.354C163.071 170.785 161.548 164.004 161.531 161.601C161.528 161.218 161.191 160.92 160.808 160.92C155.396 161.247 153.591 154.577 156.479 152.096C157.834 151.075 159.696 151.418 161.075 152.207C161.28 152.324 166.754 151.877 170.253 141.381C177.072 145.351 189.862 147.295 198.736 143.991C201.557 154.432 201.861 169.689 195.273 177.668ZM162.309 127.084C165.688 115.005 185.314 112.056 192.517 120.578C200.489 116.873 210.734 117.952 212.125 126.647C212.942 133.9 206.925 140.053 200.068 143.428C203.079 154.412 203.421 170.072 196.376 178.605C187.026 189.786 166.693 182.243 162.935 172.04C159.027 171.051 157.069 168.204 155.529 163.291C149.569 160.362 139.951 139.07 154.13 128.918C156.713 127.2 159.591 126.559 162.309 127.084ZM158.624 154.411C157.555 154.374 157.555 157.351 158.624 157.314C159.693 157.351 159.693 154.373 158.624 154.411Z" fill="#141414"/>
<path fill-rule="evenodd" clip-rule="evenodd" d="M184.7 172.291C186.267 172.064 187.657 172.708 187.804 173.728C187.952 174.749 186.802 175.76 185.235 175.987C183.668 176.214 182.278 175.57 182.131 174.549C181.983 173.528 183.133 172.517 184.7 172.291ZM185.05 162.474C185.268 162.493 185.437 162.666 185.456 162.877C185.516 163.504 185.577 164.131 185.667 164.723C185.69 164.87 185.716 165.014 185.748 165.146C185.761 165.205 185.781 165.27 185.799 165.321C185.861 165.354 185.924 165.386 185.986 165.424C186.152 165.526 186.316 165.649 186.468 165.798C186.773 166.084 187.043 166.525 187.072 167.033C187.105 167.542 186.88 168.021 186.573 168.337C186.264 168.659 185.88 168.856 185.493 168.957C185.299 169.009 185.103 169.032 184.91 169.041C184.717 169.042 184.52 169.069 184.345 168.95C184.114 168.792 184.053 168.477 184.211 168.245C184.248 168.19 184.295 168.144 184.348 168.109L184.444 168.046C184.585 167.952 184.705 167.999 184.829 167.97C184.951 167.953 185.071 167.928 185.179 167.887C185.4 167.812 185.591 167.689 185.712 167.544C185.837 167.399 185.882 167.247 185.865 167.119C185.849 166.991 185.774 166.846 185.612 166.708C185.534 166.639 185.439 166.574 185.333 166.516C185.281 166.485 185.227 166.456 185.169 166.43L185.126 166.409L185.093 166.393C185.042 166.367 184.99 166.335 184.948 166.301C184.799 166.175 184.758 166.084 184.711 166.003C184.576 165.714 184.573 165.545 184.541 165.357C184.519 165.177 184.507 165.005 184.499 164.837C184.471 164.166 184.508 163.524 184.565 162.88C184.586 162.634 184.803 162.452 185.05 162.474ZM173.57 160.784C173.718 159.763 174.585 159.044 175.508 159.177C176.43 159.311 177.059 160.247 176.911 161.267C176.764 162.288 175.896 163.007 174.973 162.874C174.051 162.74 173.423 161.805 173.57 160.784ZM191.729 158.553C192.652 158.42 193.519 159.139 193.667 160.159C193.815 161.18 193.186 162.116 192.264 162.249C191.341 162.383 190.474 161.664 190.326 160.643C190.178 159.622 190.806 158.686 191.729 158.553ZM175.268 152.22C175.868 152.218 176.356 152.702 176.359 153.302C176.361 153.901 175.878 154.389 175.278 154.392C175.252 154.392 175.224 154.391 175.198 154.389C174.229 154.323 173.235 154.59 172.333 155.14C171.88 155.411 171.453 155.751 171.061 156.141C170.671 156.532 170.304 156.958 169.903 157.387L169.891 157.4C169.66 157.648 169.271 157.661 169.023 157.43C168.839 157.258 168.785 156.999 168.864 156.776C169.084 156.158 169.427 155.586 169.842 155.065C170.255 154.541 170.73 154.052 171.276 153.626C171.821 153.199 172.444 152.849 173.119 152.599C173.794 152.348 174.527 152.223 175.259 152.22H175.268ZM190.728 151.868C190.794 151.866 190.865 151.871 190.929 151.88C191.548 151.972 192.173 152.073 192.803 152.217C193.432 152.362 194.066 152.567 194.687 152.855C195.304 153.144 195.916 153.526 196.404 154.036C196.896 154.54 197.26 155.142 197.488 155.758C197.62 156.115 197.439 156.511 197.082 156.644C196.777 156.757 196.444 156.641 196.27 156.383L196.264 156.373C195.661 155.477 194.963 154.832 194.006 154.492C193.53 154.323 193.004 154.239 192.464 154.184C191.923 154.13 191.363 154.118 190.798 154.136C190.171 154.155 189.648 153.663 189.629 153.037C189.609 152.411 190.101 151.887 190.728 151.868Z" fill="#141414"/>
<path fill-rule="evenodd" clip-rule="evenodd" d="M175.959 170.034C176.843 169.622 177.481 170.994 176.599 171.406C175.714 171.819 175.076 170.446 175.959 170.034ZM172.541 171.342C171.133 171.103 172.687 169.284 173.172 170.445C173.476 170.904 173.12 171.554 172.541 171.342ZM192.722 167.872C193.615 167.865 193.629 169.252 192.734 169.26C191.841 169.268 191.828 167.88 192.722 167.872ZM174.438 167.457C174.973 167.207 175.36 168.039 174.825 168.288C174.29 168.537 173.903 167.707 174.438 167.457ZM177.094 166.54C177.824 166.199 178.351 167.333 177.622 167.673C176.892 168.013 176.365 166.88 177.094 166.54ZM194.693 166.752C194.637 165.599 196.64 166.492 195.569 167.244C195.174 167.649 194.623 167.251 194.693 166.752ZM190.715 165.355C191.453 165.349 191.463 166.494 190.725 166.501C189.988 166.507 189.977 165.361 190.715 165.355ZM193.395 164.268C193.936 164.264 193.944 165.104 193.402 165.108C192.861 165.113 192.854 164.273 193.395 164.268Z" fill="#476520"/>
</svg>
