<svg xmlns="http://www.w3.org/2000/svg" width="22" height="21" viewBox="0 0 22 21" fill="none">
    <g clip-path="url(#clip0_403_1180)">
    <path
        d="M19.9246 0H2.0755C1.66552 0 1.27233 0.162864 0.982427 0.452764C0.692527 0.742664 0.529663 1.13585 0.529663 1.54583V19.3949C0.529663 19.8049 0.692527 20.1981 0.982427 20.488C1.27233 20.7779 1.66552 20.9407 2.0755 20.9407H19.9246C20.3345 20.9407 20.7277 20.7779 21.0176 20.488C21.3075 20.1981 21.4704 19.8049 21.4704 19.3949V1.54583C21.4704 1.13585 21.3075 0.742664 21.0176 0.452764C20.7277 0.162864 20.3345 0 19.9246 0ZM6.77116 17.8389H3.62278V7.83823H6.77116V17.8389ZM5.19479 6.45236C4.83766 6.45035 4.48913 6.3426 4.19319 6.14269C3.89724 5.94279 3.66714 5.6597 3.53193 5.32914C3.39672 4.99859 3.36246 4.6354 3.43347 4.28539C3.50448 3.93539 3.67758 3.61426 3.93092 3.36254C4.18426 3.11082 4.5065 2.93979 4.85695 2.87103C5.2074 2.80227 5.57037 2.83886 5.90005 2.97619C6.22972 3.11352 6.51133 3.34543 6.70933 3.64265C6.90733 3.93987 7.01285 4.28909 7.01257 4.64623C7.01593 4.88533 6.97113 5.12266 6.88082 5.34408C6.79052 5.5655 6.65656 5.76647 6.48693 5.93501C6.3173 6.10355 6.11547 6.23622 5.89348 6.32511C5.67148 6.41399 5.43387 6.45727 5.19479 6.45236ZM18.3758 17.8476H15.2289V12.3841C15.2289 10.7728 14.544 10.2755 13.6598 10.2755C12.7262 10.2755 11.81 10.9793 11.81 12.4248V17.8476H8.66165V7.8455H11.6893V9.23137H11.73C12.034 8.61624 13.0985 7.56484 14.7228 7.56484C16.4795 7.56484 18.3773 8.60751 18.3773 11.6614L18.3758 17.8476Z"
        fill="#0A66C2"
    />
    </g>
    <defs>
    <clipPath id="clip0_403_1180">
        <rect
        width="20.9407"
        height="20.9407"
        fill="white"
        transform="translate(0.529663)"
        />
    </clipPath>
    </defs>
</svg>